<?xml version="1.0" encoding="UTF-8" standalone="no"?>
<!-- Created with Inkscape (http://www.inkscape.org/) -->

<svg
   xmlns:dc="http://purl.org/dc/elements/1.1/"
   xmlns:cc="http://creativecommons.org/ns#"
   xmlns:rdf="http://www.w3.org/1999/02/22-rdf-syntax-ns#"
   xmlns:svg="http://www.w3.org/2000/svg"
   xmlns="http://www.w3.org/2000/svg"
   xmlns:sodipodi="http://sodipodi.sourceforge.net/DTD/sodipodi-0.dtd"
   xmlns:inkscape="http://www.inkscape.org/namespaces/inkscape"
   width="810mm"
   height="130mm"
   viewBox="0 0 810 130"
   version="1.1"
   id="svg1006"
   sodipodi:docname="logo-2023-blanco-5.svg"
   inkscape:export-filename="D:\Projects\JGMAthicon\Logo\logo-2023-blanco-2.png"
   inkscape:export-xdpi="437"
   inkscape:export-ydpi="437"
   inkscape:version="0.92.4 (5da689c313, 2019-01-14)">
  <defs
     id="defs1000">
    <clipPath
       id="clipPath849"
       clipPathUnits="userSpaceOnUse">
      <path
         inkscape:connector-curvature="0"
         id="path847"
         d="M 0,0 H 1300 V 1300 H 0 Z" />
    </clipPath>
  </defs>
  <sodipodi:namedview
     id="base"
     pagecolor="#ffffff"
     bordercolor="#666666"
     borderopacity="1.0"
     inkscape:pageopacity="0.0"
     inkscape:pageshadow="2"
     inkscape:zoom="0.49497475"
     inkscape:cx="1795.0763"
     inkscape:cy="796.34282"
     inkscape:document-units="mm"
     inkscape:current-layer="layer1"
     showgrid="true"
     showguides="true"
     inkscape:guide-bbox="true"
     inkscape:window-width="1920"
     inkscape:window-height="1017"
     inkscape:window-x="-8"
     inkscape:window-y="-8"
     inkscape:window-maximized="1">
    <inkscape:grid
       type="xygrid"
       id="grid1595" />
    <sodipodi:guide
       position="804.33331,656.16665"
       orientation="1,0"
       id="guide5344"
       inkscape:locked="false" />
  </sodipodi:namedview>
  <metadata
     id="metadata1003">
    <rdf:RDF>
      <cc:Work
         rdf:about="">
        <dc:format>image/svg+xml</dc:format>
        <dc:type
           rdf:resource="http://purl.org/dc/dcmitype/StillImage" />
        <dc:title></dc:title>
      </cc:Work>
    </rdf:RDF>
  </metadata>
  <g
     inkscape:label="Layer 1"
     inkscape:groupmode="layer"
     id="layer1"
     transform="translate(0,-167)">
    <g
       transform="matrix(0.35277777,0,0,-0.35277777,-89.55595,587.89039)"
       id="g843"
       style="fill:#d48a00;fill-opacity:0.53301889">
      <g
         clip-path="url(#clipPath849)"
         id="g845"
         style="fill:#d48a00;fill-opacity:0.53301889">
        <g
           transform="translate(608.7334,1020.7012)"
           id="g851"
           style="fill:#1488c8;fill-opacity:1">
          <path
             inkscape:connector-curvature="0"
             id="path853"
             style="fill:#1488c8;fill-opacity:1;fill-rule:evenodd;stroke:none"
             d="M 0,0 C 21.255,4.757 43.333,8.039 64.957,10.602 56.7,28.365 47.169,48.661 35.126,73.87 20.389,43.4 9.43,20.175 0,0 M 95.078,139.987 161.153,16.99 c 22.208,0.218 40.618,-0.698 51.872,-2.728 C 196.271,14.72 179.504,14.611 162.75,14.006 98.479,11.754 8.715,1.475 -50.052,-30.84 c -34.634,-19.04 -55.347,-43.374 -55.2,-72.68 0.089,-18.603 8.459,-35.853 18.885,-50.821 0.618,-0.58 0.479,-0.895 1.004,-1.399 -9.114,5.341 -15.855,12.098 -20.687,20.191 -78.228,-6.757 -148.702,-19.002 -206.503,-35.261 38.131,22.083 89.149,40.35 148.715,53.07 l 138.457,257.727 z" />
        </g>
        <g
           transform="translate(842.2646,902.9609)"
           id="g855"
           style="fill:#030000;fill-opacity:0.53301889">
          <path
             inkscape:connector-curvature="0"
             id="path857"
             style="fill:#030000;fill-opacity:0.53301889;fill-rule:evenodd;stroke:none"
             d="m 0,0 c 59.57,-12.72 110.58,-30.986 148.719,-53.069 -55.83,15.703 -123.481,27.659 -198.523,34.55 l 39.618,-17.657 c -24.99,6.622 -47.699,13.299 -68.012,19.998 -35.929,11.841 -64.369,23.717 -84.619,35.394 -49.754,28.638 -50.195,55.974 8.522,78.262 0.542,0.193 1.055,0.403 1.601,0.605 37.795,14.043 80.959,22.175 120.816,29.474 0.939,0.159 1.824,0.336 2.673,0.483 l -33.718,-10.909 z m -150.345,88.918 c -28.625,-12.186 -34.386,-25.272 -28.516,-37.563 8.778,-18.376 43.61,-33.626 66.789,-43.375 -15.775,32.344 -26.65,55.746 -38.273,80.938" />
        </g>
        <g
           transform="translate(616.293,983.0796)"
           id="g859"
           style="fill:#030000;fill-opacity:0.53301889">
          <path
             inkscape:connector-curvature="0"
             id="path861"
             style="fill:#030000;fill-opacity:0.53301889;fill-rule:nonzero;stroke:none"
             d="M 0,0 -6.858,2.357 -6.979,2.286 -7.139,2.214 -7.291,2.139 c -8.253,-4.181 -14.501,-8.711 -20.725,-15.611 l 8.228,-0.332 C -13.783,-7.673 -11.249,-5.656 0,0" />
        </g>
        <g
           transform="translate(625.0254,988.79)"
           id="g863"
           style="fill:#030000;fill-opacity:0.53301889">
          <path
             inkscape:connector-curvature="0"
             id="path865"
             style="fill:#030000;fill-opacity:0.53301889;fill-rule:nonzero;stroke:none"
             d="m 0,0 20.994,8.438 -2.58,2.135 C 13.073,10.01 0.555,5.135 -4.278,2.727 Z" />
        </g>
        <g
           transform="translate(582.4448,962.3584)"
           id="g867"
           style="fill:#d48a00;fill-opacity:0.53301889">
          <path
             inkscape:connector-curvature="0"
             id="path869"
             style="fill:#030000;fill-opacity:0.53301889;fill-rule:evenodd;stroke:none"
             d="m 0,0 7.459,-0.412 c -1.798,-3.399 -3.551,-9.29 -3.9,-12.804 -0.071,-0.538 -0.105,-1.063 -0.113,-1.576 -0.126,-3.29 0.366,-6.631 1.462,-10.009 L -6.189,-26.07 C -8.921,-16.224 -5.517,-8.085 0,0" />
        </g>
        <g
           transform="translate(592.2358,928.3628)"
           id="g871"
           style="fill:#030000;fill-opacity:0.53301889">
          <path
             inkscape:connector-curvature="0"
             id="path873"
             style="fill:#030000;fill-opacity:0.53301889;fill-rule:evenodd;stroke:none"
             d="m 0,0 -13.972,-2.87 c 2.635,-10.522 19.027,-23.377 20.023,-22.91 l 13.388,6.345 C 11.338,-13.552 3.883,-7.425 0,0" />
        </g>
        <g
           transform="translate(622.7686,899.8555)"
           id="g875"
           style="fill:#030000;fill-opacity:0.53301889">
          <path
             inkscape:connector-curvature="0"
             id="path877"
             style="fill:#030000;fill-opacity:0.53301889;fill-rule:evenodd;stroke:none"
             d="m 0,0 -15.985,-5.042 c 9.111,-11.817 45.489,-33.819 46.514,-33.416 l 21.918,8.783 C 41.854,-24.944 13.964,-10.19 0,0" />
        </g>
      </g>
    </g>
    <g
       aria-label="ATHICON"
       style="font-variant:normal;font-weight:normal;font-stretch:normal;font-size:90.82436371px;font-family:'Big John';-inkscape-font-specification:BigJohn;writing-mode:lr-tb;fill:#1488c8;fill-opacity:1;fill-rule:nonzero;stroke:none;stroke-width:0.7337777"
       id="text909">
      <path
         d="m 302.95497,261.25537 4.0871,-8.90079 h 27.88308 l 4.17792,8.90079 h 17.8924 l -32.061,-68.11827 h -8.08337 l -31.78853,68.11827 z m 18.07405,-38.96365 6.90265,14.98602 h -13.89612 z"
         style="fill:#1488c8;fill-opacity:1;stroke-width:0.7337777"
         id="path1414" />
      <path
         d="m 360.08353,210.84785 h 17.71075 v 50.40752 h 17.8924 v -50.40752 h 18.07404 v -17.80158 h -53.67719 z"
         style="fill:#1488c8;fill-opacity:1;stroke-width:0.7337777"
         id="path1416" />
      <path
         d="m 426.11283,193.1371 v 68.11827 h 17.8924 V 235.2796 h 21.61619 v 25.97577 h 17.8924 V 193.1371 h -17.8924 v 24.2501 h -21.61619 v -24.2501 z"
         style="fill:#1488c8;fill-opacity:1;stroke-width:0.7337777"
         id="path1418" />
      <path
         d="m 497.13748,261.25537 h 17.8924 V 193.1371 h -17.8924 z"
         style="fill:#1488c8;fill-opacity:1;stroke-width:0.7337777"
         id="path1420" />
      <path
         d="m 585.14626,203.03695 c -6.17606,-6.17605 -14.62273,-9.89985 -23.97764,-9.89985 -18.80064,0 -34.05913,15.25849 -34.05913,34.05913 0,18.80065 15.25849,34.05914 34.05913,34.05914 9.44574,0 17.98323,-3.90545 24.15929,-10.0815 L 572.61249,238.6401 c -2.81555,2.90638 -6.81182,4.54122 -11.44387,4.54122 -9.26408,0 -15.98508,-6.721 -15.98508,-15.98509 0,-9.26408 6.721,-15.98508 15.98508,-15.98508 4.63205,0 8.62832,1.63484 11.44387,4.45039 z"
         style="fill:#1488c8;fill-opacity:1;stroke-width:0.7337777"
         id="path1422" />
      <path
         d="m 596.22681,227.28706 c 0,18.80064 15.16767,33.96831 33.96831,33.96831 18.80064,0 34.05914,-15.16767 34.05914,-33.96831 0,-18.80064 -15.2585,-34.14996 -34.05914,-34.14996 -18.80064,0 -33.96831,15.34932 -33.96831,34.14996 z m 50.22587,-0.0908 c 0,8.90079 -7.26595,16.25757 -16.25756,16.25757 -8.90079,0 -16.16674,-7.35678 -16.16674,-16.25757 0,-8.99161 7.26595,-16.25756 16.16674,-16.25756 8.99161,0 16.25756,7.26595 16.25756,16.25756 z"
         style="fill:#1488c8;fill-opacity:1;stroke-width:0.7337777"
         id="path1424" />
      <path
         d="M 734.09833,261.25537 V 193.1371 h -17.8924 v 32.15182 L 683.96328,193.1371 h -7.26595 v 68.11827 h 17.8924 v -32.24265 l 32.15182,32.24265 z"
         style="fill:#1488c8;fill-opacity:1;stroke-width:0.7337777"
         id="path1426" />
    </g>
  </g>
  <g
     inkscape:groupmode="layer"
     id="layer3"
     inkscape:label="Layer 3" />
  <g
     inkscape:groupmode="layer"
     id="layer2"
     inkscape:label="Layer 2" />
</svg>
