<?xml version="1.0" encoding="UTF-8" standalone="no"?>
<!-- Created with Inkscape (http://www.inkscape.org/) -->

<svg
   xmlns:dc="http://purl.org/dc/elements/1.1/"
   xmlns:cc="http://creativecommons.org/ns#"
   xmlns:rdf="http://www.w3.org/1999/02/22-rdf-syntax-ns#"
   xmlns:svg="http://www.w3.org/2000/svg"
   xmlns="http://www.w3.org/2000/svg"
   xmlns:sodipodi="http://sodipodi.sourceforge.net/DTD/sodipodi-0.dtd"
   xmlns:inkscape="http://www.inkscape.org/namespaces/inkscape"
   width="810mm"
   height="130mm"
   viewBox="0 0 810 130"
   version="1.1"
   id="svg1006"
   sodipodi:docname="logo-2023-blanco-5.svg"
   inkscape:export-filename="D:\Projects\JGMAthicon\Logo\logo-2023-blanco-2.png"
   inkscape:export-xdpi="437"
   inkscape:export-ydpi="437"
   inkscape:version="0.92.4 (5da689c313, 2019-01-14)">
  <defs
     id="defs1000">
    <clipPath
       id="clipPath849"
       clipPathUnits="userSpaceOnUse">
      <path
         inkscape:connector-curvature="0"
         id="path847"
         d="M 0,0 H 1300 V 1300 H 0 Z" />
    </clipPath>
  </defs>
  <sodipodi:namedview
     id="base"
     pagecolor="#ffffff"
     bordercolor="#666666"
     borderopacity="1.0"
     inkscape:pageopacity="0.0"
     inkscape:pageshadow="2"
     inkscape:zoom="0.49497475"
     inkscape:cx="1462.4296"
     inkscape:cy="716.82648"
     inkscape:document-units="mm"
     inkscape:current-layer="layer1"
     showgrid="true"
     showguides="true"
     inkscape:guide-bbox="true"
     inkscape:window-width="1920"
     inkscape:window-height="1017"
     inkscape:window-x="-8"
     inkscape:window-y="-8"
     inkscape:window-maximized="1">
    <inkscape:grid
       type="xygrid"
       id="grid1595" />
    <sodipodi:guide
       position="804.33331,656.16665"
       orientation="1,0"
       id="guide5344"
       inkscape:locked="false" />
  </sodipodi:namedview>
  <metadata
     id="metadata1003">
    <rdf:RDF>
      <cc:Work
         rdf:about="">
        <dc:format>image/svg+xml</dc:format>
        <dc:type
           rdf:resource="http://purl.org/dc/dcmitype/StillImage" />
        <dc:title />
      </cc:Work>
    </rdf:RDF>
  </metadata>
  <g
     inkscape:label="Layer 1"
     inkscape:groupmode="layer"
     id="layer1"
     transform="translate(0,-167)">
    <g
       transform="matrix(0.35277777,0,0,-0.35277777,-89.55595,587.89039)"
       id="g843"
       style="fill:#d48a00;fill-opacity:0.53301889">
      <g
         clip-path="url(#clipPath849)"
         id="g845"
         style="fill:#d48a00;fill-opacity:0.53301889">
        <g
           transform="translate(608.7334,1020.7012)"
           id="g851"
           style="fill:#1488c8;fill-opacity:1">
          <path
             inkscape:connector-curvature="0"
             id="path853"
             style="fill:#1488c8;fill-opacity:1;fill-rule:evenodd;stroke:none"
             d="M 0,0 C 21.255,4.757 43.333,8.039 64.957,10.602 56.7,28.365 47.169,48.661 35.126,73.87 20.389,43.4 9.43,20.175 0,0 M 95.078,139.987 161.153,16.99 c 22.208,0.218 40.618,-0.698 51.872,-2.728 C 196.271,14.72 179.504,14.611 162.75,14.006 98.479,11.754 8.715,1.475 -50.052,-30.84 c -34.634,-19.04 -55.347,-43.374 -55.2,-72.68 0.089,-18.603 8.459,-35.853 18.885,-50.821 0.618,-0.58 0.479,-0.895 1.004,-1.399 -9.114,5.341 -15.855,12.098 -20.687,20.191 -78.228,-6.757 -148.702,-19.002 -206.503,-35.261 38.131,22.083 89.149,40.35 148.715,53.07 l 138.457,257.727 z" />
        </g>
        <g
           transform="translate(842.2646,902.9609)"
           id="g855"
           style="fill:#030000;fill-opacity:0.53301889">
          <path
             inkscape:connector-curvature="0"
             id="path857"
             style="fill:#030000;fill-opacity:0.53301889;fill-rule:evenodd;stroke:none"
             d="m 0,0 c 59.57,-12.72 110.58,-30.986 148.719,-53.069 -55.83,15.703 -123.481,27.659 -198.523,34.55 l 39.618,-17.657 c -24.99,6.622 -47.699,13.299 -68.012,19.998 -35.929,11.841 -64.369,23.717 -84.619,35.394 -49.754,28.638 -50.195,55.974 8.522,78.262 0.542,0.193 1.055,0.403 1.601,0.605 37.795,14.043 80.959,22.175 120.816,29.474 0.939,0.159 1.824,0.336 2.673,0.483 l -33.718,-10.909 z m -150.345,88.918 c -28.625,-12.186 -34.386,-25.272 -28.516,-37.563 8.778,-18.376 43.61,-33.626 66.789,-43.375 -15.775,32.344 -26.65,55.746 -38.273,80.938" />
        </g>
        <g
           transform="translate(616.293,983.0796)"
           id="g859"
           style="fill:#030000;fill-opacity:0.53301889">
          <path
             inkscape:connector-curvature="0"
             id="path861"
             style="fill:#030000;fill-opacity:0.53301889;fill-rule:nonzero;stroke:none"
             d="M 0,0 -6.858,2.357 -6.979,2.286 -7.139,2.214 -7.291,2.139 c -8.253,-4.181 -14.501,-8.711 -20.725,-15.611 l 8.228,-0.332 C -13.783,-7.673 -11.249,-5.656 0,0" />
        </g>
        <g
           transform="translate(625.0254,988.79)"
           id="g863"
           style="fill:#030000;fill-opacity:0.53301889">
          <path
             inkscape:connector-curvature="0"
             id="path865"
             style="fill:#030000;fill-opacity:0.53301889;fill-rule:nonzero;stroke:none"
             d="m 0,0 20.994,8.438 -2.58,2.135 C 13.073,10.01 0.555,5.135 -4.278,2.727 Z" />
        </g>
        <g
           transform="translate(582.4448,962.3584)"
           id="g867"
           style="fill:#d48a00;fill-opacity:0.53301889">
          <path
             inkscape:connector-curvature="0"
             id="path869"
             style="fill:#030000;fill-opacity:0.53301889;fill-rule:evenodd;stroke:none"
             d="m 0,0 7.459,-0.412 c -1.798,-3.399 -3.551,-9.29 -3.9,-12.804 -0.071,-0.538 -0.105,-1.063 -0.113,-1.576 -0.126,-3.29 0.366,-6.631 1.462,-10.009 L -6.189,-26.07 C -8.921,-16.224 -5.517,-8.085 0,0" />
        </g>
        <g
           transform="translate(592.2358,928.3628)"
           id="g871"
           style="fill:#030000;fill-opacity:0.53301889">
          <path
             inkscape:connector-curvature="0"
             id="path873"
             style="fill:#030000;fill-opacity:0.53301889;fill-rule:evenodd;stroke:none"
             d="m 0,0 -13.972,-2.87 c 2.635,-10.522 19.027,-23.377 20.023,-22.91 l 13.388,6.345 C 11.338,-13.552 3.883,-7.425 0,0" />
        </g>
        <g
           transform="translate(622.7686,899.8555)"
           id="g875"
           style="fill:#030000;fill-opacity:0.53301889">
          <path
             inkscape:connector-curvature="0"
             id="path877"
             style="fill:#030000;fill-opacity:0.53301889;fill-rule:evenodd;stroke:none"
             d="m 0,0 -15.985,-5.042 c 9.111,-11.817 45.489,-33.819 46.514,-33.416 l 21.918,8.783 C 41.854,-24.944 13.964,-10.19 0,0" />
        </g>
      </g>
    </g>
    <g
       aria-label="ATHICON"
       style="font-variant:normal;font-weight:normal;font-stretch:normal;font-size:90.82436371px;font-family:'Big John';-inkscape-font-specification:BigJohn;writing-mode:lr-tb;fill:#1488c8;fill-opacity:1;fill-rule:nonzero;stroke:none;stroke-width:0.7337777"
       id="text909">
      <path
         d="m 302.95497,261.25537 4.0871,-8.90079 h 27.88308 l 4.17792,8.90079 h 17.8924 l -32.061,-68.11827 h -8.08337 l -31.78853,68.11827 z m 18.07405,-38.96365 6.90265,14.98602 h -13.89612 z"
         style="fill:#1488c8;fill-opacity:1;stroke-width:0.7337777"
         id="path1414" />
      <path
         d="m 360.08353,210.84785 h 17.71075 v 50.40752 h 17.8924 v -50.40752 h 18.07404 v -17.80158 h -53.67719 z"
         style="fill:#1488c8;fill-opacity:1;stroke-width:0.7337777"
         id="path1416" />
      <path
         d="m 426.11283,193.1371 v 68.11827 h 17.8924 V 235.2796 h 21.61619 v 25.97577 h 17.8924 V 193.1371 h -17.8924 v 24.2501 h -21.61619 v -24.2501 z"
         style="fill:#1488c8;fill-opacity:1;stroke-width:0.7337777"
         id="path1418" />
      <path
         d="m 497.13748,261.25537 h 17.8924 V 193.1371 h -17.8924 z"
         style="fill:#1488c8;fill-opacity:1;stroke-width:0.7337777"
         id="path1420" />
      <path
         d="m 585.14626,203.03695 c -6.17606,-6.17605 -14.62273,-9.89985 -23.97764,-9.89985 -18.80064,0 -34.05913,15.25849 -34.05913,34.05913 0,18.80065 15.25849,34.05914 34.05913,34.05914 9.44574,0 17.98323,-3.90545 24.15929,-10.0815 L 572.61249,238.6401 c -2.81555,2.90638 -6.81182,4.54122 -11.44387,4.54122 -9.26408,0 -15.98508,-6.721 -15.98508,-15.98509 0,-9.26408 6.721,-15.98508 15.98508,-15.98508 4.63205,0 8.62832,1.63484 11.44387,4.45039 z"
         style="fill:#1488c8;fill-opacity:1;stroke-width:0.7337777"
         id="path1422" />
      <path
         d="m 596.22681,227.28706 c 0,18.80064 15.16767,33.96831 33.96831,33.96831 18.80064,0 34.05914,-15.16767 34.05914,-33.96831 0,-18.80064 -15.2585,-34.14996 -34.05914,-34.14996 -18.80064,0 -33.96831,15.34932 -33.96831,34.14996 z m 50.22587,-0.0908 c 0,8.90079 -7.26595,16.25757 -16.25756,16.25757 -8.90079,0 -16.16674,-7.35678 -16.16674,-16.25757 0,-8.99161 7.26595,-16.25756 16.16674,-16.25756 8.99161,0 16.25756,7.26595 16.25756,16.25756 z"
         style="fill:#1488c8;fill-opacity:1;stroke-width:0.7337777"
         id="path1424" />
      <path
         d="M 734.09833,261.25537 V 193.1371 h -17.8924 v 32.15182 L 683.96328,193.1371 h -7.26595 v 68.11827 h 17.8924 v -32.24265 l 32.15182,32.24265 z"
         style="fill:#1488c8;fill-opacity:1;stroke-width:0.7337777"
         id="path1426" />
    </g>
    <path
       style="fill:#333333;fill-opacity:1;stroke:#ffffff;stroke-width:1.3341732;stroke-miterlimit:4;stroke-dasharray:none;stroke-opacity:1"
       d="m 959.84652,450.84398 c -1.7867,-1.78668 -73.2918,-17.03413 -103.76109,-22.12556 -39.62323,-6.62106 -100.59135,-14.73004 -122.22846,-16.25681 l -17.17259,-1.21175 12.54234,5.97097 c 6.89829,3.28404 14.46718,6.58189 16.81976,7.32857 2.35259,0.74669 3.82159,1.81347 3.26443,2.37061 -2.5076,2.5076 -88.5695,-25.06118 -125.14017,-40.08698 -81.90657,-33.65298 -115.82235,-64.78785 -100.42242,-92.18833 11.98858,-21.3308 56.75251,-41.68659 129.29645,-58.7958 51.64444,-12.18013 91.02161,-18.65073 58.53522,-9.61871 -11.62625,3.23238 -12.07655,3.59445 -9.8358,7.90857 4.6553,8.96291 81.28028,152.01957 81.77998,152.68093 0.28157,0.37265 11.72278,3.35195 25.42494,6.62065 53.82339,12.83982 108.99752,31.94294 144.11096,49.89604 9.40345,4.80788 14.4023,8.30592 11.95348,8.36467 -2.31494,0.0556 -4.64009,-0.33014 -5.16703,-0.85707 z M 610.64368,322.80663 c -13.34794,-28.08397 -24.26898,-51.91464 -24.26898,-52.95705 0,-3.03184 -3.48618,-2.24431 -14.28183,3.22626 -22.80294,11.55512 -33.18424,27.08526 -28.20028,42.18682 5.17004,15.66538 33.79401,36.88649 72.38667,53.66571 9.66494,4.20209 17.81129,7.03263 18.10301,6.29009 0.29171,-0.74254 -10.39065,-24.32786 -23.73859,-52.41183 z"
       id="path972"
       inkscape:connector-curvature="0"
       transform="matrix(0.26458333,0,0,0.26458333,0,167)" />
    <path
       style="fill:#1a1a1a;fill-opacity:1;stroke:#ffffff;stroke-width:1.3341732;stroke-miterlimit:4;stroke-dasharray:none;stroke-opacity:1"
       d="m 492.24186,270.58659 c -1.48351,-0.92658 -2.69919,-1.74152 -2.7015,-1.81097 -0.01,-0.28854 8.39221,-3.78701 14.27605,-5.94447 4.88628,-1.79168 11.07413,-3.65429 13.79915,-4.15369 l 1.70107,-0.31175 1.65163,1.34004 c 1.10901,0.89979 1.54576,1.39816 1.32938,1.51696 -0.17723,0.0973 -6.00434,2.45482 -12.94914,5.23891 -6.9448,2.7841 -13.02795,5.23022 -13.51812,5.43584 l -0.89121,0.37384 z"
       id="path984"
       inkscape:connector-curvature="0"
       transform="matrix(0.26458333,0,0,0.26458333,0,167)" />
    <path
       style="fill:#1a1a1a;fill-opacity:1;stroke:#ffffff;stroke-width:1.3341732;stroke-miterlimit:4;stroke-dasharray:none;stroke-opacity:1"
       d="m 450.69296,298.06795 c -2.25902,-0.0954 -4.16713,-0.23321 -4.24026,-0.30634 -0.40179,-0.40179 7.34494,-7.70173 11.63788,-10.96666 3.81637,-2.90248 10.66009,-7.1645 14.59638,-9.09009 l 1.47172,-0.71995 4.3812,1.50296 4.3812,1.50296 -3.58008,1.87199 c -9.85371,5.15243 -13.75303,7.84585 -19.50995,13.47633 -2.90208,2.83834 -3.09858,2.98146 -4.04061,2.9428 -0.5446,-0.0223 -2.83847,-0.11864 -5.09748,-0.214 z"
       id="path986"
       inkscape:connector-curvature="0"
       transform="matrix(0.26458333,0,0,0.26458333,0,167)" />
    <path
       style="fill:#1a1a1a;fill-opacity:1;stroke:#ffffff;stroke-width:1.3341732;stroke-miterlimit:4;stroke-dasharray:none;stroke-opacity:1"
       d="m 429.69751,341.3172 c -0.66167,-2.53469 -0.88221,-4.55502 -0.88904,-8.14436 -0.008,-4.33671 0.47438,-7.2001 1.91039,-11.33403 1.07901,-3.10622 3.68212,-8.28983 5.7675,-11.48492 l 1.78977,-2.74218 1.06473,0.14178 c 0.5856,0.078 2.74095,0.21769 4.78966,0.31046 2.04872,0.0928 3.72494,0.21554 3.72494,0.27281 0,0.0573 -0.26728,0.64016 -0.59395,1.2953 -1.35847,2.72442 -3.27327,8.70516 -4.11102,12.84051 -0.67844,3.34893 -0.62761,9.43893 0.10966,13.14038 0.30882,1.5504 0.72434,3.2805 0.92339,3.84466 0.19904,0.56415 0.28275,1.07152 0.18601,1.12748 -0.0967,0.0559 -0.97139,0.18053 -1.94366,0.27684 -0.97227,0.0963 -4.09743,0.45066 -6.9448,0.78745 -2.84736,0.33679 -5.25788,0.6129 -5.3567,0.61359 -0.0988,7.6e-4 -0.29091,-0.42491 -0.42688,-0.94577 z"
       id="path988"
       inkscape:connector-curvature="0"
       transform="matrix(0.26458333,0,0,0.26458333,0,167)" />
    <path
       style="fill:#1a1a1a;fill-opacity:1;stroke:#ffffff;stroke-width:1.3341732;stroke-miterlimit:4;stroke-dasharray:none;stroke-opacity:1"
       d="m 457.31474,386.25955 c -2.89256,-1.87162 -6.84094,-5.24691 -10.98322,-9.38904 -4.40366,-4.40351 -6.62543,-7.01636 -9.12229,-10.72798 -2.38,-3.53792 -4.83911,-8.79653 -4.31946,-9.23682 0.10572,-0.0896 3.99922,-0.92985 8.65224,-1.86728 4.65301,-0.93743 8.70507,-1.76147 9.00458,-1.83119 0.45546,-0.10602 0.70965,0.15593 1.55375,1.60123 3.83034,6.55846 10.44823,13.23822 21.07207,21.2691 1.90982,1.44369 3.46867,2.69375 3.46412,2.77792 -0.008,0.15591 -16.89638,8.17524 -17.49132,8.30584 -0.17937,0.0394 -1.00308,-0.36643 -1.83047,-0.90178 z"
       id="path990"
       inkscape:connector-curvature="0"
       transform="matrix(0.26458333,0,0,0.26458333,0,167)" />
    <path
       style="fill:#1a1a1a;fill-opacity:1;stroke:#ffffff;stroke-width:1.3341732;stroke-miterlimit:4;stroke-dasharray:none;stroke-opacity:1"
       d="m 530.01496,440.97361 c -6.4981,-3.42588 -21.37971,-12.83276 -31.65187,-20.0076 -4.71174,-3.29102 -13.26116,-9.74626 -16.79379,-12.68013 -3.18549,-2.64557 -10.73484,-9.94535 -10.73094,-10.37619 10e-4,-0.11734 4.74081,-1.70526 10.53277,-3.52871 l 10.53083,-3.31537 1.2734,0.93679 c 11.09089,8.15918 37.01299,23.0684 59.51988,34.23314 l 8.74902,4.34002 -14.30581,5.72061 c -7.8682,3.14634 -14.49459,5.72061 -14.72533,5.72061 -0.23073,0 -1.3099,-0.46942 -2.39816,-1.04317 z"
       id="path992"
       inkscape:connector-curvature="0"
       transform="matrix(0.26458333,0,0,0.26458333,0,167)" />
  </g>
  <g
     inkscape:groupmode="layer"
     id="layer3"
     inkscape:label="Layer 3" />
  <g
     inkscape:groupmode="layer"
     id="layer2"
     inkscape:label="Layer 2" />
</svg>
